<?xml version="1.0" encoding="UTF-8" standalone="no"?>
<svg
   xmlns:dc="http://purl.org/dc/elements/1.1/"
   xmlns:cc="http://creativecommons.org/ns#"
   xmlns:rdf="http://www.w3.org/1999/02/22-rdf-syntax-ns#"
   xmlns:svg="http://www.w3.org/2000/svg"
   xmlns="http://www.w3.org/2000/svg"
   xmlns:sodipodi="http://sodipodi.sourceforge.net/DTD/sodipodi-0.dtd"
   xmlns:inkscape="http://www.inkscape.org/namespaces/inkscape"
   aria-hidden="true"
   focusable="false"
   data-prefix="fas"
   data-icon="mouse"
   class="svg-inline--fa fa-mouse fa-w-12"
   role="img"
   viewBox="0 0 384 512"
   version="1.1"
   id="svg4"
   sodipodi:docname="mouse-solid.svg"
   inkscape:version="0.92.1 r15371">
  <metadata
     id="metadata10">
    <rdf:RDF>
      <cc:Work
         rdf:about="">
        <dc:format>image/svg+xml</dc:format>
        <dc:type
           rdf:resource="http://purl.org/dc/dcmitype/StillImage" />
      </cc:Work>
    </rdf:RDF>
  </metadata>
  <defs
     id="defs8" />
  <sodipodi:namedview
     pagecolor="#ffffff"
     bordercolor="#666666"
     borderopacity="1"
     objecttolerance="10"
     gridtolerance="10"
     guidetolerance="10"
     inkscape:pageopacity="0"
     inkscape:pageshadow="2"
     inkscape:window-width="640"
     inkscape:window-height="480"
     id="namedview6"
     showgrid="false"
     inkscape:zoom="0.4609375"
     inkscape:cx="192"
     inkscape:cy="256"
     inkscape:window-x="867"
     inkscape:window-y="152"
     inkscape:window-maximized="0"
     inkscape:current-layer="svg4" />
  <path
     d="m 0,352 a 160,160 0 0 0 160,160 h 64 A 160,160 0 0 0 384,352 V 224 H 0 Z M 176,0 H 160 A 160,160 0 0 0 0,160 v 32 h 176 z m 48,0 H 208 V 192 H 384 V 160 A 160,160 0 0 0 224,0 Z"
     id="path2"
     style="fill:#000000"
     inkscape:connector-curvature="0" />
  <path
     style="fill:#800000;stroke-width:2.16949153"
     d="M 1.5338435,166.29153 C 1.5526413,134.76545 6.7822353,111.13473 18.878687,87.916201 35.216256,56.557063 58.829796,33.186584 89.383051,18.137561 111.58195,7.2034833 127.5598,3.0860292 153.92542,1.5051522 L 175.07797,0.23685038 V 96.009951 191.78305 H 88.298305 1.5186441 Z"
     id="path3682"
     inkscape:connector-curvature="0" />
</svg>
