<?xml version="1.0" encoding="UTF-8" standalone="no"?>
<svg
   xmlns:dc="http://purl.org/dc/elements/1.1/"
   xmlns:cc="http://creativecommons.org/ns#"
   xmlns:rdf="http://www.w3.org/1999/02/22-rdf-syntax-ns#"
   xmlns:svg="http://www.w3.org/2000/svg"
   xmlns="http://www.w3.org/2000/svg"
   xmlns:sodipodi="http://sodipodi.sourceforge.net/DTD/sodipodi-0.dtd"
   xmlns:inkscape="http://www.inkscape.org/namespaces/inkscape"
   aria-hidden="true"
   focusable="false"
   data-prefix="fas"
   data-icon="mouse"
   class="svg-inline--fa fa-mouse fa-w-12"
   role="img"
   viewBox="0 0 384 512"
   version="1.1"
   id="svg4"
   sodipodi:docname="mouse-solid right.svg"
   inkscape:version="0.92.1 r15371">
  <metadata
     id="metadata10">
    <rdf:RDF>
      <cc:Work
         rdf:about="">
        <dc:format>image/svg+xml</dc:format>
        <dc:type
           rdf:resource="http://purl.org/dc/dcmitype/StillImage" />
      </cc:Work>
    </rdf:RDF>
  </metadata>
  <defs
     id="defs8" />
  <sodipodi:namedview
     pagecolor="#ffffff"
     bordercolor="#666666"
     borderopacity="1"
     objecttolerance="10"
     gridtolerance="10"
     guidetolerance="10"
     inkscape:pageopacity="0"
     inkscape:pageshadow="2"
     inkscape:window-width="640"
     inkscape:window-height="480"
     id="namedview6"
     showgrid="false"
     inkscape:zoom="0.4609375"
     inkscape:cx="196.33898"
     inkscape:cy="247.32203"
     inkscape:window-x="867"
     inkscape:window-y="152"
     inkscape:window-maximized="0"
     inkscape:current-layer="svg4" />
  <path
     d="m 0,352 a 160,160 0 0 0 160,160 h 64 A 160,160 0 0 0 384,352 V 224 H 0 Z M 176,0 H 160 A 160,160 0 0 0 0,160 v 32 h 176 z m 48,0 H 208 V 192 H 384 V 160 A 160,160 0 0 0 224,0 Z"
     id="path2"
     style="fill:#000000"
     inkscape:connector-curvature="0" />
  <path
     style="fill:#800000;stroke-width:2.16949153"
     d="M 1.5338435,166.29153 C 1.5526413,134.76545 6.7822353,111.13473 18.878687,87.916201 35.216256,56.557063 58.829796,33.186584 89.383051,18.137561 111.58195,7.2034833 127.5598,3.0860292 153.92542,1.5051522 L 175.07797,0.23685038 V 96.009951 191.78305 H 88.298305 1.5186441 Z"
     id="path3682"
     inkscape:connector-curvature="0" />
  <path
     style="fill:#550000;stroke-width:2.16949153"
     d="M -0.0074496,163.03729 C 1.5430417,128.57476 4.8373072,114.85603 18.095839,87.647458 26.667357,70.057372 31.036661,64.169207 47.913578,47.464455 79.120249,16.576126 108.24423,3.5368797 150.67119,1.4583118 L 175.07797,0.26258269 V 96.022817 191.78305 H 86.888613 -1.3007397 Z"
     id="path8"
     inkscape:connector-curvature="0" />
  <path
     style="fill:#550000;stroke-width:2.16949153"
     d="M 209.78983,96.325424 V 0.86779661 h 14.19316 c 42.60779,0 85.6661,18.92659939 115.42017,50.73379539 17.14723,18.330449 27.08222,35.151367 35.45443,60.027868 6.01981,17.88679 7.03677,24.28574 7.99762,50.32308 l 1.10082,29.83051 h -87.0831 -87.0831 z"
     id="path10"
     inkscape:connector-curvature="0" />
  <path
     style="fill:#000000;stroke-width:2.16949153"
     d="M 0.16212523,164.20627 C 1.8673428,132.30899 5.4161449,115.00548 14.247281,95.528828 39.568859,39.683282 91.228524,4.3142348 151.75593,1.3828411 L 175.07797,0.25333511 V 96.018193 191.78305 H 86.882922 -1.31212 Z"
     id="path12"
     inkscape:connector-curvature="0" />
  <path
     style="fill:#800000;stroke-width:2.16949153"
     d="M 207.62034,96.325428 V 0.86780051 l 17.8983,0.0152081 c 57.54279,0.0488656 112.41872,33.32570639 139.04651,84.31800439 13.198,25.274207 17.02787,41.159927 18.24239,75.666797 l 1.08811,30.91524 h -88.13766 -88.13765 z"
     id="path11"
     inkscape:connector-curvature="0" />
</svg>
